PathFileType	4	(x/y/z)	S09_P20_T27
DataRate	CameraRate	NumFrames	NumMarkers	Units	OrigDataRate	OrigDataStartFrame	OrigNumFrames
240	240	4	51	mm	240	148	394
Frame#	Time	Sternum			R.Acromium			L.Acromium			Top.Head			R.ASIS			L.ASIS			R.PSIS			L.PSIS			R.Great.Tro			L.Great.Tro			R.Iliac.Crest			L.Iliac.Crest			V.Sacral			R.Thigh.Upper.Post			R.Thigh.Lower.Ant			R.Thigh.Lower.Post			R.Thigh.Upper.Ant			R.Knee.Lat			R.Knee.Med			R.Shank.Upper.Post			R.Shank.Lower.Ant			R.Shank.Lower.Post			R.Shank.Upper.Ant			R.Ankle.Lat			R.Ankle.Med			R.Heel.Upper			R.Heel.Med			R.Heel.Lat			R.Toe.Lat			R.Toe.Med			R.Toe.Tip			L.Thigh.Upper.Post			L.Thigh.Lower.Ant			L.Thigh.Lower.Post			L.Thigh.Upper.Ant			L.Knee.Lat			L.Knee.Med			L.Shank.Upper.Post			L.Shank.Lower.Ant			L.Shank.Lower.Post			L.Shank.Upper.Ant			L.Ankle.Lat			L.Ankle.Med			L.Heel.Upper			L.Heel.Med			L.Heel.Lat			L.Toe.Lat			L.Toe.Med			L.Toe.Tip			Cervical.Spine			Back			
		X1	Y1	Z1	X2	Y2	Z2	X3	Y3	Z3	X4	Y4	Z4	X5	Y5	Z5	X6	Y6	Z6	X7	Y7	Z7	X8	Y8	Z8	X9	Y9	Z9	X10	Y10	Z10	X11	Y11	Z11	X12	Y12	Z12	X13	Y13	Z13	X14	Y14	Z14	X15	Y15	Z15	X16	Y16	Z16	X17	Y17	Z17	X18	Y18	Z18	X19	Y19	Z19	X20	Y20	Z20	X21	Y21	Z21	X22	Y22	Z22	X23	Y23	Z23	X24	Y24	Z24	X25	Y25	Z25	X26	Y26	Z26	X27	Y27	Z27	X28	Y28	Z28	X29	Y29	Z29	X30	Y30	Z30	X31	Y31	Z31	X32	Y32	Z32	X33	Y33	Z33	X34	Y34	Z34	X35	Y35	Z35	X36	Y36	Z36	X37	Y37	Z37	X38	Y38	Z38	X39	Y39	Z39	X40	Y40	Z40	X41	Y41	Z41	X42	Y42	Z42	X43	Y43	Z43	X44	Y44	Z44	X45	Y45	Z45	X46	Y46	Z46	X47	Y47	Z47	X48	Y48	Z48	X49	Y49	Z49	X50	Y50	Z50	X51	Y51	Z51	

148	0.6125	-540.29	1184.8	324.98	-680.16	1428.4	467.43	-671.47	1430.3	154.77	-663.07	1738.4	304.06	-587.82	1018.2	414.84	-614.83	1016.2	171.25	-816.5	1033.8	363.26	-818.87	1039.1	273.62	-654.23	929.54	491.94	-703.05	926.52	109.11	-675.88	1092.6	469.5	-718.76	1112	147.77	-835.16	1000	316.13	-603.39	685.53	462.81	-516.85	604.92	408.37	-592.67	596.21	431.84	-533.73	688.42	441.76	-521.21	528.59	401.93	-541.05	520.6	280.74	-561.41	342.85	410.29	-485.86	295.3	391.01	-551.42	267.53	398.43	-501.13	366.64	405.53	-490.71	89.625	373.25	-468.82	108.54	287.87	-550.05	69.907	321.96	-533.95	40.547	292.96	-542.22	39.165	357.09	-382.98	52.466	405.8	-340.27	73.058	304.1	-301.54	102.75	348.55	-781.82	677.76	175.58	-711.51	572.89	155.21	-770.42	586.86	187.7	-718.78	661.12	138.53	-742.94	500.55	169.19	-686.03	498.91	292.42	-854.71	425.9	174.16	-859.45	315.99	182.92	-901.42	365.53	187.65	-812.87	377.53	170.88	-1010	192.72	219.97	-984.97	180.84	310.25	-1076.9	216.55	283	-1081.3	195.55	319.37	-1101.8	196.42	260.77	-1004	63.54	199.76	-961.78	49.173	305.04	-925	39.581	245.33	-765.22	1480	316.61	-806.12	1214.6	301.55
149	0.61667	-534.47	1185.5	325.13	-674.37	1428.9	467.75	-666.34	1430.6	155.07	-657.77	1738.8	304.07	-581.6	1018.7	414.8	-608.98	1016.6	171.42	-810.32	1034.1	363.82	-812.87	1039.1	274.15	-647.79	930.36	492.38	-697	926.63	109.41	-669.4	1093.2	469.85	-713.18	1112.2	148.05	-829.03	1000.2	316.8	-598.05	686	463.39	-512.04	604.96	408.73	-587.8	596.59	432.5	-528.45	688.57	442.08	-516.82	528.53	402.26	-537.18	520.55	281.15	-558.15	342.99	410.93	-483.04	294.92	391.17	-548.76	267.61	398.97	-497.72	366.36	405.79	-489.84	89.358	373.37	-467.84	108.1	287.95	-549.42	70.235	322.1	-533.66	40.762	293.06	-541.89	39.371	357.2	-382.33	51.294	405.8	-339.53	71.463	304	-300.38	100.71	348.46	-773.68	677.05	175.11	-702.61	572.82	153.81	-761.31	586.11	186.78	-710.69	661.06	137.59	-733.46	500.62	167.52	-675.45	498.24	290.42	-845.56	427.41	173.09	-851.43	317.49	181.31	-892.83	367.47	186.59	-804.29	378.58	169.24	-1002.9	195.51	218.68	-977.71	183.24	308.92	-1067.7	222.17	281.84	-1072.9	201.64	318.37	-1093.4	202.83	259.77	-1001.5	65.673	199.48	-959.56	50.398	304.72	-924.01	39.233	245.17	-759.77	1480.3	317.06	-800.31	1214.8	302.13
150	0.62083	-528.66	1186.2	325.27	-668.59	1429.4	468.06	-661.2	1431	155.36	-652.46	1739.3	304.07	-575.43	1019.2	414.77	-603.17	1017	171.58	-804.19	1034.6	364.35	-806.91	1039.1	274.66	-641.42	931.22	492.83	-690.96	926.73	109.69	-662.97	1093.8	470.17	-707.63	1112.4	148.3	-822.95	1000.3	317.44	-592.81	686.49	464	-507.32	605.01	409.15	-583.03	596.99	433.18	-523.28	688.73	442.48	-512.53	528.49	402.65	-533.24	520.54	281.59	-555.02	343.14	411.55	-480.34	294.56	391.39	-546.23	267.71	399.49	-494.45	366.08	406.11	-489.06	89.121	373.51	-466.92	107.71	288.07	-548.83	70.538	322.24	-533.38	40.974	293.15	-541.57	39.555	357.31	-381.72	50.2	405.85	-338.86	69.988	303.94	-299.3	98.794	348.44	-765.45	676.33	174.59	-693.62	572.78	152.38	-752.14	585.38	185.82	-702.52	661.02	136.62	-723.85	500.72	165.81	-664.76	497.63	288.4	-836.21	428.91	171.97	-843.18	319	179.66	-884.02	369.39	185.46	-795.48	379.65	167.57	-995.39	198.29	217.3	-970.23	185.67	307.52	-1058.2	227.78	280.54	-1064.1	207.76	317.2	-1084.7	209.24	258.61	-998.63	67.942	199.15	-957.06	51.799	304.37	-922.75	38.871	244.98	-754.32	1480.6	317.51	-794.5	1215.1	302.71
151	0.625	-522.86	1187	325.38	-662.8	1429.9	468.36	-656.07	1431.4	155.65	-647.14	1739.7	304.08	-569.3	1019.7	414.74	-597.39	1017.4	171.72	-798.1	1035	364.85	-800.98	1039.1	275.13	-635.15	932.12	493.27	-684.93	926.81	109.98	-656.59	1094.5	470.45	-702.1	1112.6	148.53	-816.92	1000.5	318.06	-587.69	686.98	464.62	-502.69	605.08	409.64	-578.36	597.4	433.86	-518.21	688.88	442.94	-508.34	528.44	403.1	-529.23	520.58	282.07	-552.02	343.31	412.15	-477.75	294.21	391.67	-543.82	267.83	399.99	-491.3	365.82	406.48	-488.34	88.913	373.66	-466.06	107.37	288.21	-548.3	70.816	322.38	-533.13	41.18	293.25	-541.28	39.719	357.41	-381.17	49.186	405.94	-338.24	68.626	303.93	-298.31	96.989	348.46	-757.15	675.62	174.02	-684.52	572.77	150.94	-742.89	584.67	184.82	-694.27	661	135.62	-714.11	500.85	164.07	-653.96	497.07	286.38	-826.67	430.4	170.77	-834.7	320.51	177.98	-875	371.3	184.26	-786.48	380.73	165.87	-987.61	201.06	215.84	-962.54	188.13	306.06	-1048.3	233.37	279.07	-1055	213.85	315.88	-1075.6	215.62	257.28	-995.46	70.338	198.77	-954.23	53.376	303.98	-921.17	38.506	244.75	-748.86	1481	317.97	-788.7	1215.4	303.27
